<?xml version="1.0" encoding="utf-8"?>
<!-- Generator: Adobe Illustrator 17.0.0, SVG Export Plug-In . SVG Version: 6.00 Build 0)  -->
<!DOCTYPE svg PUBLIC "-//W3C//DTD SVG 1.1//EN" "http://www.w3.org/Graphics/SVG/1.1/DTD/svg11.dtd">
<svg version="1.1" id="Capa_1" xmlns="http://www.w3.org/2000/svg" xmlns:xlink="http://www.w3.org/1999/xlink" x="0px" y="0px"
	 width="200px" height="200px" viewBox="0 0 200 200" enable-background="new 0 0 200 200" xml:space="preserve">
<g>
	<path fill="#1D1D1B" d="M146.17,91.155c4.917-17.926,13.507-36.279,10.459-55.157c-2.221-13.756-13.027-31.581-29.315-28.693
		c-12.943,2.295-16.801,23.475-18.777,33.486c-2.613,13.242-4.075,28.038-2.873,41.746c-0.245-0.012-0.481-0.046-0.745-0.007
		c-2.223,0.429-4.467,0.549-6.721,0.528c-0.89-21.589,5.179-79.203-23.358-79.367C38.058,3.48,53.09,63.384,56.242,87.878
		c-28.642,1.609-44.138,26.719-30.339,53.909c7.068,13.927,22.585,21.356,39.272,25.579c-7.228,7.947-8.513,20.104,3.668,25.148
		c10.134,4.197,18.468-0.288,23.101-7.966c1.462,1.247,3.355,2.14,5.885,2.411c4.507,0.483,7.891-2.004,10.224-5.431
		c3.31,8.004,11.048,13.306,20.872,12.265c5.331-0.565,10.088-3.275,12.863-7.914c2.52-4.213,2.612-11.021,0.261-15.762
		c16.036-4.578,29.675-14.273,35.356-31.988C184.357,116.446,170.794,86.803,146.17,91.155z M88.518,171.793
		c-0.003,0-0.006-0.001-0.009-0.001c-0.558,9.054-6.109,17.141-16.036,14.356c-10.093-2.831-5.079-11.726-0.566-17.241
		c5.622,1.138,11.247,1.967,16.647,2.601C88.539,171.603,88.531,171.698,88.518,171.793z M100.19,179.218
		c-3.868,2.346-4.74-1.691-4.631-4.739c0.112-0.725,0.183-1.459,0.241-2.194c3.015,0.285,5.867,0.518,8.573,0.732
		C103.763,175.555,102.639,177.732,100.19,179.218z M135.985,181.66c-1.01,3.244-4.81,4.957-7.904,5.327
		c-8.235,0.984-14.484-4.849-17.048-12.031c0.139-0.507,0.296-1.018,0.399-1.514c7.841,0.268,15.88-0.222,23.585-1.692
		C135.718,175.057,137.118,178.02,135.985,181.66z M154.573,156.474c-14.869,10.593-36.717,9.74-54.035,8.413
		c-17.419-1.335-35.534-4.911-51.345-12.477c-9.801-4.69-16.607-12.356-20.042-22.606c-7.079-21.13,11.638-32.95,28.737-36.262
		c0.903,0.464,2.046,0.318,2.713-0.461c0.082-0.012,0.166-0.031,0.248-0.042c2.746-0.379,2.358-4.185,0.2-5.093
		c-1.167-20.316-11.686-80.762,14.93-76.407c20.49,3.353,13.144,60.563,14.85,75.201c0.263,2.254,1.553,3.564,3.816,3.816
		c4.982,0.556,8.322,0.566,12.459-2.26c1.152,0.83,2.889,0.791,3.138-0.995c3.04-21.766,1.856-45.843,12.172-65.861
		c2.785-5.405,6.982-8.483,12.948-5.741c11.029,5.068,14.056,17.721,14.145,28.626c0.138,16.88-7.808,32.696-11.673,48.804
		c-0.73,3.042,1.998,4.934,4.358,4.672c0.863,1.139,2.264,1.865,4.06,1.439c17.642-4.195,22.799,11.561,24.324,24.431
		C172.179,137.218,165.311,148.824,154.573,156.474z"/>
	<path fill="#1D1D1B" d="M83.449,52.008c-0.802-8.035-1.17-24.085-9.669-28.425c-6.701-3.422-10.263,3.88-11.88,10.333
		c-0.57,0.4-0.699,1.114-0.39,1.704c-0.4,1.946-0.629,3.717-0.702,4.934c-0.98,16.37,3.286,34.622,7.602,50.321
		c0.5,1.819,3.167,1.4,3.225-0.436c0.001-0.047-0.003-0.094-0.001-0.141c0.186,0.363,0.449,0.702,0.859,0.957
		c3.213,2,7.067,1.157,10.559,0.607c1.187-0.187,2.029-1.537,2.022-2.656C85,76.777,84.685,64.383,83.449,52.008z M75.89,38.232
		c-1.405,0.069-2.849,0.494-4.164,0.751c-1.354,0.265-2.709,0.524-4.068,0.76c-0.452,0.079-0.904,0.156-1.355,0.235
		c0.07-1.131,0.26-2.248,0.409-3.37c3.016,0.228,6.01,0.552,9.034,1.083c0.002,0,0.004,0,0.006,0
		C75.795,37.873,75.844,38.052,75.89,38.232z M74.769,34.31c-2.499-0.548-5.032-0.749-7.585-0.763
		C68.915,26.475,72.863,29.522,74.769,34.31z M66.204,42.883c0.518-0.016,1.029-0.064,1.45-0.096
		c2.78-0.212,6.515-0.424,9.062-1.105c0.326,1.649,0.619,3.311,0.851,4.99c-1.634-0.134-3.502,0.228-4.981,0.287
		c-2.098,0.083-4.199,0.109-6.3,0.148C66.212,45.698,66.193,44.29,66.204,42.883z M66.492,49.957
		c2.031,0.047,4.062,0.095,6.094,0.142c1.637,0.038,3.682,0.451,5.418,0.195c0.05,0.471,0.112,0.94,0.157,1.412
		c-2.036-0.155-4.135,0.102-6.161,0.178c-1.718,0.065-3.549,0.025-5.339,0.136C66.591,51.336,66.55,50.645,66.492,49.957z
		 M67.952,61.594c-0.376-2.246-0.714-4.474-0.984-6.677c1.692,0.087,3.413,0.056,5.032,0.117c2.129,0.081,4.339,0.35,6.473,0.141
		c0.13,1.815,0.245,3.631,0.333,5.439c-1.955-0.45-3.896-0.009-5.859,0.263C71.28,61.107,69.609,61.317,67.952,61.594z
		 M68.521,64.848c1.473-0.032,2.96-0.216,4.4-0.321c2.05-0.149,4.126-0.149,6.019-0.979c0.066,1.561,0.129,3.115,0.195,4.652
		c-0.597-0.221-1.326-0.089-1.762,0.554c0.417-0.615,1.05-0.629-0.075-0.433c-0.4,0.07-0.784,0.176-1.177,0.279
		c-1.131,0.297-2.365,0.339-3.525,0.447c-1.095,0.102-2.194,0.161-3.293,0.21C69.037,67.781,68.781,66.316,68.521,64.848z
		 M69.81,72.134c1.74,0.023,3.48,0.022,5.217-0.038c1.153-0.04,3.091-0.098,4.197-0.909c0.014,0.643,0.032,1.286,0.051,1.929
		c-0.056,0.018-0.112-0.004-0.168,0.02c-1.475,0.649-2.699,1.42-4.338,1.635c-1.525,0.201-3.058-0.004-4.553-0.338
		C70.091,73.665,69.942,72.902,69.81,72.134z M70.672,77.682c2.869,0.609,6.357,0.712,8.703-0.781
		c0.024,1.212,0.075,2.423,0.095,3.635c-0.112,0.022-0.23-0.011-0.337,0.039c-2.425,1.135-5.186,1.771-7.88,1.57
		C71.109,80.661,70.88,79.171,70.672,77.682z M73.691,86.832c-1.008,0.039-1.72,0.629-2.075,1.379
		c-0.01-1.127-0.074-2.261-0.144-3.396c1.544,0.12,3.104,0.043,4.663-0.14c1.181-0.139,2.382-0.352,3.407-0.875
		C79.607,89.582,79.28,86.613,73.691,86.832z"/>
	<path fill="#1D1D1B" d="M143.764,40.087c-0.575-0.542-1.229-0.882-1.909-1.166c-1.065-3.826-2.964-7.011-6.012-9.016
		c-18.412-12.11-19.846,50.23-19.305,58.067c0.093,1.351,1.386,1.699,2.262,1.203c3.681,1.998,7.995-0.612,11.951-5.684
		c0.884,0.058,1.748,0.037,2.504-0.24c1.46-0.535,1.377-2.323,0-2.884c-0.083-0.034-0.179-0.042-0.264-0.072
		c1.145-1.803,2.238-3.8,3.254-5.925c0.143-0.132,0.312-0.244,0.397-0.418c0.158-0.325,0.16-0.579,0.167-0.836
		c1.041-2.295,1.973-4.731,2.795-7.225c0.8-0.455,1.012-1.392,0.669-2.099c2.152-7.247,3.132-14.828,2.295-21.207
		c0.182-0.023,0.361,0.018,0.543-0.026C144.182,42.305,144.559,40.837,143.764,40.087z M119.862,84.346
		c0.092-1.272,0.182-2.587,0.271-3.893c1.631,0.695,3.296,1.305,5.009,1.799C123.581,83.461,121.834,84.24,119.862,84.346z
		 M127.799,79.579c-0.335-0.033-0.676-0.058-0.994-0.115c-2.211-0.394-4.37-1.066-6.469-1.874c0.089-1.266,0.188-2.55,0.286-3.833
		c0.237,0.037,0.493,0.092,0.697,0.12c1.889,0.258,3.781,0.444,5.68,0.609c0.741,0.065,2.137,0.332,3.648,0.516
		C129.804,76.665,128.864,78.231,127.799,79.579z M132.384,71.095c-1.463-0.057-2.86,0.02-3.429-0.003
		c-2.028-0.081-4.054-0.201-6.082-0.277c-0.33-0.012-0.659-0.032-0.989-0.048c-0.051-0.007-0.068-0.052-0.122-0.054
		c-0.239-0.007-0.552-0.032-0.883-0.052c0.257-2.981,0.565-5.982,0.961-8.96c0.112,0.135,0.256,0.26,0.449,0.361
		c3.278,1.718,7.54,3.914,11.668,4.461C133.492,68.028,132.986,69.562,132.384,71.095z M135.94,59.028
		c-0.247,1.114-0.573,2.446-0.939,3.85c-3.91-0.368-7.435-1.452-11.299-3.23c-0.608-0.28-1.188-0.124-1.588,0.223
		c0.164-1.12,0.381-2.219,0.575-3.327c0.106,0.017,0.19,0.064,0.307,0.066c2.261,0.033,4.52,0.078,6.778,0.221
		c2.135,0.136,4.345,0.875,6.478,0.765C136.148,58.077,136.043,58.562,135.94,59.028z M136.932,54.236
		c-3.637-2.22-9.439-1.573-13.52-1.475c0.283-1.319,0.597-2.622,0.937-3.91c3.095,0.162,6.203,0.48,9.26,0.928
		c1.126,0.165,2.576,0.539,3.908,0.532C137.364,51.631,137.171,52.946,136.932,54.236z M133.23,46.37
		c-2.677-0.152-5.341-0.368-8.016-0.458c0.952-3.066,2.087-6.014,3.519-8.752c2.231,1.152,4.458,2.307,6.751,3.336
		c0.586,0.263,1.185,0.559,1.791,0.846c0.356,1.688,0.507,3.44,0.481,5.228C136.242,46.299,134.473,46.441,133.23,46.37z"/>
	<g>
		<path fill="#1D1D1B" d="M117.892,145.596c-3.233,4.462-5.526,10.91-10.9,5.032c-3.171-3.469-5.266-8.481-6.306-13.309
			c0.228-0.114,0.47-0.174,0.678-0.366c0.589-0.546,0.78-1.259,0.846-2.027c0,0,0.001,0.004,0.002,0.005
			c-0.022,0.597-0.154,0.969-0.245,1.158c0.031-0.053,0.039-0.08,0.109-0.173c0.287-0.384,0.436-0.859,0.532-1.322
			c0.199-0.973,0.414-1.933,0.672-2.893c0.26-0.965,0.558-1.919,0.867-2.868c0.257-0.788,0.676-1.901,0.808-2.179
			c1.066-2.249-0.188-5.084-2.914-5.077l-9.861,0.024c-2.698,0.007-3.964,2.801-2.893,5.042c0.142,0.299,0.286,0.598,0.431,0.896
			l0.521,0.674c0.829,0.628,0.9,0.692,0.214,0.192c0.495,0.93,0.902,1.913,1.37,2.857c0.859,1.73,2.005,3.376,3.402,4.726
			c-0.125,3.606-0.563,7.128-3.509,9.701c-2.148,1.876-5.756,1.959-8.197,1.474c-3.037-0.604-5.448-1.982-6.551-4.153
			c-0.212-0.418-0.223-1.318,0.229-2.583c0.627-1.753,2.716-3.728,3.88-5.411c1.368-1.977-0.912-5.064-3.212-4.179
			c-5.538,2.13-9.798,8.012-8.167,14.076c1.362,5.064,6.617,8.216,11.421,9.293c5.319,1.192,10.945,0.243,15.093-3.401
			c1.048-0.921,1.821-2.015,2.449-3.186c1.376,3.773,3.449,7.225,6.422,9.719c7.638,6.409,16.41-1.56,18.394-9.388
			C124.372,144.422,119.864,142.875,117.892,145.596z"/>
		<path fill="#1D1D1B" d="M101.967,136.09C101.879,136.24,101.888,136.253,101.967,136.09L101.967,136.09z"/>
	</g>
	<path fill="#1D1D1B" d="M129.264,108.152c-3.155-0.815-6.79,0.176-8.946,2.652c-2.991,3.436-2.978,8.13-2.311,12.378
		c0.479,3.054,4.991,2.098,5.141-0.696c0.112-2.1,0.316-4.835,1.784-6.486c0.908-1.022,1.478-1,2.753-0.655
		c1.195,0.323,2.48,1.545,3.326,2.979c1.09,1.848,1.215,4.153,0.823,6.22c-0.902,4.756,6.391,6.774,7.269,2.004
		C140.49,119.01,137.36,110.244,129.264,108.152z"/>
	<path fill="#1D1D1B" d="M70.618,102.677c-8.356,2.211-8.126,12.219-4.774,18.329c1.111,2.026,3.991,0.588,3.565-1.503
		c-0.498-2.443-0.698-5.023,0.105-7.417c0.502-1.495,1.646-2.356,2.583-2.666c1.071-0.355,2.104-0.188,2.94,0.492
		c1.701,1.382,1.972,3.408,2.567,5.48c1.104,3.84,6.963,3.093,6.96-0.942C84.561,107.192,77.974,100.731,70.618,102.677z"/>
</g>
</svg>
